:SAMPLES-PER-SECOND 30
:FULLY-SPECIFIED
:DEGREES
367
root  -14.0642 39.4835 20.8617 3.32445 81.9266 4.68021
RightUpLeg  1.62501 -7.94542 -1.55159
RightLeg  16.4578 7.83585 1.64605
RightFoot  -14.304 -0.202094 -4.06933
RightToes  -2.9104e-010 0 -3.6325e-017
Spine  7.47739 1.94104 11.9001
Spine1  0.631808 4.31328 -8.85865
HEad  -16.7085 -0.744235 -1.97691
LeftShoulder1  -0.530769 4.90686 -31.684
LeftArm  -4.6117 15.7362 -40.2522
LeftForeArm  32.772 -10.1975 -7.49058
LeftHand  -0.0741659 7.70005 -1.51551
RightShoulder  -0.965149 -6.24837 28.6067
RightArm  14.8442 2.45756 44.0123
RightForeArm  12.6717 31.7774 6.27588
RightHand  -0.204258 4.14305 -2.71271
LeftUpLeg  -20.2044 5.90168 0.133147
LeftLeg  24.9948 0.984077 0.955188
LeftFoot  -1.64851 0.399264 -4.5893
LeftToes  -3.37426e-010 -1.91496e-010 5.23909e-011
368
root  -12.8362 39.4863 21.0481 5.39451 82.231 6.51123
RightUpLeg  4.78039 -8.29555 -2.22348
RightLeg  13.8693 8.09598 1.56688
RightFoot  -14.9996 -0.224386 -3.85037
RightToes  -2.9104e-010 0 -3.6325e-017
Spine  6.79493 2.16341 11.0752
Spine1  1.22916 4.41907 -9.1641
HEad  -17.603 -0.402095 -2.17439
LeftShoulder1  -0.537424 4.92049 -31.7901
LeftArm  -5.90727 16.1815 -40.0772
LeftForeArm  32.4331 -9.65282 -7.22484
LeftHand  -0.0444941 8.15385 0.0228283
RightShoulder  -0.932116 -6.17933 28.274
RightArm  14.9387 3.66094 44.472
RightForeArm  11.4927 31.6492 6.31205
RightHand  -0.382081 5.20413 -4.50963
LeftUpLeg  -19.3244 6.71641 -0.772166
LeftLeg  12.1512 0.4269 -0.0269824
LeftFoot  -1.55309 0.448779 -5.14375
LeftToes  -3.37426e-010 -1.91496e-010 5.23909e-011
369
root  -11.5729 39.3985 21.2126 7.1126 82.7072 8.15408
RightUpLeg  7.99946 -8.48443 -2.83615
RightLeg  11.7594 8.21326 1.44492
RightFoot  -15.8868 -0.24007 -3.34701
RightToes  -2.9104e-010 0 -3.6325e-017
Spine  6.77499 2.35177 10.0138
Spine1  1.09908 4.49647 -8.99093
HEad  -18.3889 -0.735919 -2.02925
LeftShoulder1  -0.525931 4.88976 -31.7981
LeftArm  -5.94472 16.964 -39.9265
LeftForeArm  32.9941 -9.69976 -7.17295
LeftHand  -0.0558754 7.85849 -0.643526
RightShoulder  -0.924664 -6.18925 27.8572
RightArm  14.8655 3.63138 44.7125
RightForeArm  12.1294 31.4311 6.22122
RightHand  -0.308506 5.35472 -3.64332
LeftUpLeg  -18.2046 2.5936 -0.0244742
LeftLeg  1.17733 4.27975 -1.09957
LeftFoot  -2.52117 0.466139 -5.82029
LeftToes  -3.37426e-010 -1.91496e-010 5.23909e-011
370
root  -10.2339 39.1796 21.32 7.58674 83.0004 8.73343
RightUpLeg  10.7761 -8.6448 -3.46263
RightLeg  11.2004 8.59761 1.47325
RightFoot  -17.3802 -0.25444 -2.60143
RightToes  -2.9104e-010 0 -3.6325e-017
Spine  6.53481 2.37798 9.00681
Spine1  1.4853 4.46743 -8.63914
HEad  -18.5213 -0.580424 -2.28726
LeftShoulder1  -0.576099 5.01403 -32.0025
LeftArm  -5.27916 17.5213 -39.4611
LeftForeArm  32.4993 -10.0872 -7.25412
LeftHand  -0.0588972 7.13709 -1.23296
RightShoulder  -0.860022 -5.99968 27.8668
RightArm  16.2264 4.26334 44.9161
RightForeArm  11.9686 29.708 5.8087
RightHand  -0.178337 5.48789 -2.21504
LeftUpLeg  -17.9316 1.9304 -0.592281
LeftLeg  -4.54408 7.85252 -1.33408
LeftFoot  -3.85094 0.423004 -6.1692
LeftToes  -3.37426e-010 -1.91496e-010 5.23909e-011
371
root  -8.83094 38.8237 21.3653 5.93558 83.7267 7.28922
RightUpLeg  13.1418 -8.75617 -3.71026
RightLeg  12.069 8.37496 1.49722
RightFoot  -19.364 -0.241562 -1.58382
RightToes  -2.9104e-010 0 -3.6325e-017
Spine  6.22621 2.31909 8.74487
Spine1  1.7734 4.3665 -8.58541
HEad  -18.6887 -0.610478 -1.89712
LeftShoulder1  -0.562666 4.99124 -31.6731
LeftArm  -4.75264 17.8091 -39.4773
LeftForeArm  31.8696 -10.7326 -7.21283
LeftHand  -0.0782485 8.18406 -1.39357
RightShoulder  -0.915533 -6.08716 28.8576
RightArm  17.4724 4.6792 44.8427
RightForeArm  11.6092 27.071 5.20369
RightHand  -0.128556 5.28007 -1.71065
LeftUpLeg  -18.867 1.73939 -1.08401
LeftLeg  -3.03003 11.5762 -1.57106
LeftFoot  -4.65536 0.462892 -7.3647
LeftToes  -3.37426e-010 -1.91496e-010 5.23909e-011
372
root  -7.35108 38.5148 21.3907 8.61171 84.3758 10.3416
RightUpLeg  15.6013 -8.40718 -4.43274
RightLeg  13.2347 8.09565 1.50417
RightFoot  -20.7938 -0.108307 0.383989
RightToes  -2.9104e-010 0 -3.6325e-017
Spine  5.90286 2.45151 8.30856
Spine1  2.58477 4.72116 -9.19251
HEad  -18.6184 -1.64774 -1.45935
LeftShoulder1  -0.522484 4.89717 -31.3566
LeftArm  -4.61755 17.4514 -39.5548
LeftForeArm  32.5308 -10.8289 -7.20171
LeftHand  -0.07259 7.04922 -2.14014
RightShoulder  -1.00643 -6.30468 29.3863
RightArm  18.3025 3.79833 45.0293
RightForeArm  10.3497 24.3205 4.661
RightHand  -0.128987 5.26867 -1.71794
LeftUpLeg  -20.2706 1.58839 -2.18476
LeftLeg  3.099 11.8959 -0.795742
LeftFoot  -1.54006 0.152258 -2.15147
LeftToes  -3.37426e-010 -1.91496e-010 5.23909e-011
373
root  -5.79996 38.2643 21.3893 14.875 83.8725 17.131
RightUpLeg  17.6078 -6.56602 -5.52552
RightLeg  15.288 7.52606 1.64509
RightFoot  -21.4943 0.171149 3.54903
RightToes  -2.9104e-010 0 -3.6325e-017
Spine  5.85593 3.04516 6.78323
Spine1  2.97405 5.35074 -9.19001
HEad  -18.2493 -2.50929 -0.73854
LeftShoulder1  -0.617033 5.12211 -31.9529
LeftArm  -4.3127 17.1343 -38.8335
LeftForeArm  31.6225 -11.0627 -7.20489
LeftHand  -0.0581481 7.32392 -0.989582
RightShoulder  -1.0086 -6.28742 29.6868
RightArm  18.8175 2.30684 45.262
RightForeArm  9.72375 20.8634 4.49292
RightHand  -0.128662 4.19895 -1.82975
LeftUpLeg  -21.1574 1.84584 -3.95289
LeftLeg  8.75148 10.9486 0.653278
LeftFoot  4.35882 -0.546338 3.93456
LeftToes  -3.37426e-010 -1.91496e-010 5.23909e-011
374
root  -4.20578 38.0244 21.3782 25.8661 83.3851 28.9234
RightUpLeg  18.6013 -4.27257 -7.17257
RightLeg  19.9721 6.46947 2.40817
RightFoot  -21.2744 0.513403 7.52663
RightToes  -2.9104e-010 0 -3.6325e-017
Spine  6.2954 3.48432 4.26606
Spine1  2.32183 5.44477 -8.6732
HEad  -17.8371 -2.84486 -0.445983
LeftShoulder1  -0.753244 5.45163 -32.5243
LeftArm  -3.87412 17.0635 -37.8423
LeftForeArm  30.3828 -11.6715 -7.0789
LeftHand  -0.0429261 7.46957 -0.173997
RightShoulder  -0.993313 -6.19733 30.3055
RightArm  17.4805 0.628383 45.4659
RightForeArm  11.3364 16.0831 5.37921
RightHand  -0.151242 4.20864 -2.10169
LeftUpLeg  -21.3867 3.53344 -6.50264
LeftLeg  14.4841 8.12015 1.94959
LeftFoot  6.9189 -0.894475 5.35426
LeftToes  -3.37426e-010 -1.91496e-010 5.23909e-011
375
root  -2.72005 37.8601 21.3535 38.7067 83.1209 42.1245
RightUpLeg  16.9467 -3.27398 -9.11003
RightLeg  28.234 6.36345 3.47333
RightFoot  -18.3874 0.679767 13.7396
RightToes  -2.9104e-010 0 -3.6325e-017
Spine  6.66807 3.65008 2.18173
Spine1  1.88707 5.41136 -9.10507
HEad  -17.3058 -3.19522 -0.464703
LeftShoulder1  -0.771925 5.50381 -32.4268
LeftArm  -4.03224 16.489 -37.5862
LeftForeArm  28.8692 -11.5396 -7.10386
LeftHand  -0.0218364 8.00063 0.914365
RightShoulder  -1.05998 -6.33481 30.8951
RightArm  13.7472 -1.5879 46.0137
RightForeArm  16.6968 11.753 6.06185
RightHand  -0.086143 3.76438 -1.36026
LeftUpLeg  -21.5746 4.85845 -9.07004
LeftLeg  19.8676 6.09293 2.84596
LeftFoot  4.36882 -1.07192 7.57746
LeftToes  -3.37426e-010 -1.91496e-010 5.23909e-011
376
root  -1.35959 37.8625 21.2301 43.0772 82.6503 46.7593
RightUpLeg  12.566 -1.78689 -10.462
RightLeg  39.0209 5.97851 4.91428
RightFoot  -9.83835 -0.263948 18.2639
RightToes  -2.9104e-010 0 -3.6325e-017
Spine  7.04273 3.76946 1.8093
Spine1  2.01445 5.55361 -10.1707
HEad  -17.2836 -3.14735 -1.17279
LeftShoulder1  -0.81474 5.5877 -32.9292
LeftArm  -4.29911 15.0752 -37.423
LeftForeArm  28.5252 -11.4403 -7.06048
LeftHand  -0.0274703 7.44151 0.701874
RightShoulder  -1.05703 -6.35962 30.4669
RightArm  11.2641 -3.42018 47.2401
RightForeArm  21.2304 8.11003 6.16201
RightHand  -0.00210265 3.4075 -0.2456
LeftUpLeg  -20.3915 4.88634 -10.1626
LeftLeg  22.5457 6.41869 3.26222
LeftFoot  1.51548 -1.01079 8.83909
LeftToes  -3.37426e-010 -1.91496e-010 5.23909e-011
377
root  -0.0620933 37.9509 21.1267 44.1912 81.6043 48.1728
RightUpLeg  6.21499 0.836542 -11.4531
RightLeg  50.5751 5.40206 6.68574
RightFoot  2.74022 -1.76314 14.8135
RightToes  -2.9104e-010 0 -3.6325e-017
Spine  8.07942 3.80479 0.899982
Spine1  1.03238 5.48012 -10.9485
HEad  -16.9798 -2.19005 -1.7117
LeftShoulder1  -0.754354 5.45507 -32.5023
LeftArm  -4.32131 14.7542 -38.1278
LeftForeArm  27.9996 -12.0227 -6.84968
LeftHand  -0.0216962 7.44533 0.999693
RightShoulder  -1.01305 -6.23193 30.5736
RightArm  12.091 -4.98656 47.4631
RightForeArm  23.0048 6.69085 6.48996
RightHand  0.0710403 1.76007 0.978168
LeftUpLeg  -18.4984 4.83977 -11.193
LeftLeg  23.8062 7.03203 3.73304
LeftFoot  -1.09707 -0.780656 8.76794
LeftToes  -3.37426e-010 -1.91496e-010 5.23909e-011
378
root  1.17409 38.0377 21.0773 43.993 80.8562 48.2391
RightUpLeg  0.162506 2.75422 -11.978
RightLeg  59.2184 4.80849 8.17442
RightFoot  10.0362 -1.91425 10.3195
RightToes  -2.9104e-010 0 -3.6325e-017
Spine  7.79876 3.78877 -0.973547
Spine1  2.13807 5.11956 -10.0439
HEad  -17.7441 -0.518285 -2.51689
LeftShoulder1  -0.756729 5.45772 -32.5693
LeftArm  -2.49597 13.669 -38.7148
LeftForeArm  26.3598 -13.4866 -6.71145
LeftHand  -0.0247778 7.69283 0.855656
RightShoulder  -0.992068 -6.16926 30.6525
RightArm  13.0589 -5.78691 47.2395
RightForeArm  25.4335 7.47346 6.74826
RightHand  0.0791208 0.775279 1.39519
LeftUpLeg  -16.4028 5.27269 -11.8431
LeftLeg  24.4596 7.29907 3.96554
LeftFoot  -3.42423 -0.587396 8.75408
LeftToes  -3.37426e-010 -1.91496e-010 5.23909e-011
